<svg width="154" height="92" viewBox="0 0 154 92" fill="none" xmlns="http://www.w3.org/2000/svg">
<path d="M78 56V24H92.7634V29.0383H83.1051V49.3957C86.8305 46.4681 87.5893 43.6766 87.9343 39.9319H85.7266V35.166H92.7634C94.4967 49.175 86.4165 54.7064 78 56Z" fill="#F4F4F4"/>
<path d="M77 24H62V28.9597H71.9539V49.2059C69.0044 46.8173 67.0461 44.586 67.0461 38.879H62C62 48.051 66.424 54.3015 77 56V24Z" fill="#F4F4F4"/>
<path d="M76.2841 3.09375L73.3333 6.78241L70.3826 3.09375C70.2634 2.94642 70.1016 2.83956 69.9193 2.78782C69.737 2.73608 69.5432 2.74199 69.3643 2.80474C69.1855 2.86749 69.0305 2.984 68.9205 3.13831C68.8105 3.29262 68.751 3.47717 68.75 3.66666V17.4167C68.75 18.4277 69.5722 19.25 70.5833 19.25H83.4167C84.4278 19.25 85.25 18.4277 85.25 17.4167V3.66666C85.249 3.47717 85.1895 3.29262 85.0795 3.13831C84.9695 2.984 84.8145 2.86749 84.6357 2.80474C84.4569 2.74199 84.263 2.73608 84.0807 2.78782C83.8984 2.83956 83.7366 2.94642 83.6174 3.09375L80.6667 6.78241L77.7159 3.09375C77.3667 2.65925 76.6333 2.65925 76.2841 3.09375V3.09375ZM70.5833 17.4167V15.5833H83.4176V17.4167H70.5833ZM79.9508 8.82291C80.3 9.25833 81.0342 9.25833 81.3835 8.82291L83.4167 6.28008L83.4176 13.75H70.5833V6.28008L72.6174 8.82291C72.9667 9.25833 73.7009 9.25833 74.0502 8.82291L77 5.13425L79.9508 8.82291Z" fill="#D9B8B8"/>
<path d="M5.712 77.24C4.8 77.24 3.952 77.056 3.168 76.688C2.384 76.304 1.744 75.776 1.248 75.104C1.056 74.816 0.96 74.536 0.96 74.264C0.96 73.88 1.112 73.552 1.416 73.28C1.72 72.992 2.032 72.848 2.352 72.848C2.768 72.848 3.216 73.088 3.696 73.568C4 73.856 4.312 74.064 4.632 74.192C4.952 74.304 5.312 74.36 5.712 74.36C6.176 74.36 6.616 74.24 7.032 74C7.464 73.76 7.808 73.44 8.064 73.04C8.32 72.624 8.448 72.192 8.448 71.744V61.664C8.448 61.248 8.6 60.904 8.904 60.632C9.208 60.344 9.56 60.2 9.96 60.2C10.408 60.2 10.768 60.336 11.04 60.608C11.312 60.88 11.448 61.232 11.448 61.664V71.744C11.448 72.704 11.192 73.608 10.68 74.456C10.168 75.304 9.472 75.984 8.592 76.496C7.712 76.992 6.752 77.24 5.712 77.24ZM27.1382 70.592C27.1382 71.872 26.8502 73.024 26.2742 74.048C25.6982 75.056 24.9062 75.84 23.8982 76.4C22.9062 76.96 21.8102 77.24 20.6102 77.24C19.3942 77.24 18.2902 76.96 17.2982 76.4C16.3062 75.84 15.5222 75.056 14.9462 74.048C14.3702 73.024 14.0822 71.872 14.0822 70.592C14.0822 69.312 14.3702 68.168 14.9462 67.16C15.5222 66.136 16.3062 65.344 17.2982 64.784C18.2902 64.208 19.3942 63.92 20.6102 63.92C21.8102 63.92 22.9062 64.208 23.8982 64.784C24.9062 65.344 25.6982 66.136 26.2742 67.16C26.8502 68.168 27.1382 69.312 27.1382 70.592ZM24.2582 70.592C24.2582 69.808 24.0902 69.112 23.7542 68.504C23.4342 67.88 22.9942 67.4 22.4342 67.064C21.8902 66.728 21.2822 66.56 20.6102 66.56C19.9382 66.56 19.3222 66.728 18.7622 67.064C18.2182 67.4 17.7782 67.88 17.4422 68.504C17.1222 69.112 16.9622 69.808 16.9622 70.592C16.9622 71.376 17.1222 72.072 17.4422 72.68C17.7782 73.288 18.2182 73.76 18.7622 74.096C19.3222 74.432 19.9382 74.6 20.6102 74.6C21.2822 74.6 21.8902 74.432 22.4342 74.096C22.9942 73.76 23.4342 73.288 23.7542 72.68C24.0902 72.072 24.2582 71.376 24.2582 70.592ZM36.1924 63.92C37.2964 63.92 38.2964 64.208 39.1924 64.784C40.0884 65.344 40.7924 66.128 41.3044 67.136C41.8324 68.144 42.0964 69.288 42.0964 70.568C42.0964 71.848 41.8404 73 41.3284 74.024C40.8164 75.032 40.1124 75.824 39.2164 76.4C38.3364 76.96 37.3604 77.24 36.2884 77.24C35.5204 77.24 34.7924 77.088 34.1044 76.784C33.4324 76.464 32.8724 76.08 32.4244 75.632V75.776C32.4244 76.192 32.2884 76.544 32.0164 76.832C31.7444 77.104 31.4004 77.24 30.9844 77.24C30.5684 77.24 30.2244 77.104 29.9524 76.832C29.6804 76.56 29.5444 76.208 29.5444 75.776V60.704C29.5444 60.288 29.6804 59.944 29.9524 59.672C30.2244 59.384 30.5684 59.24 30.9844 59.24C31.4004 59.24 31.7444 59.384 32.0164 59.672C32.2884 59.944 32.4244 60.288 32.4244 60.704V65.72C32.8084 65.24 33.3444 64.824 34.0324 64.472C34.7204 64.104 35.4404 63.92 36.1924 63.92ZM35.8324 74.6C36.8564 74.6 37.6964 74.216 38.3524 73.448C39.0084 72.68 39.3364 71.72 39.3364 70.568C39.3364 69.416 39.0084 68.464 38.3524 67.712C37.7124 66.944 36.8724 66.56 35.8324 66.56C34.7924 66.56 33.9444 66.944 33.2884 67.712C32.6324 68.464 32.3044 69.416 32.3044 70.568C32.3044 71.72 32.6324 72.68 33.2884 73.448C33.9444 74.216 34.7924 74.6 35.8324 74.6Z" fill="#F4F4F4"/>
<path d="M54.5117 68.3633H58.2617V76.4727C56.957 76.9805 55.6016 77.2344 54.1953 77.2344C52.3281 77.2344 50.8789 76.4531 49.8477 74.8906C48.8164 73.3281 48.3008 71.1602 48.3008 68.3867C48.3008 65.6055 48.832 63.4492 49.8945 61.918C50.9648 60.3867 52.4648 59.6211 54.3945 59.6211C55.6914 59.6211 56.9141 59.9883 58.0625 60.7227L57.5117 61.7305C56.4336 61.043 55.3945 60.6992 54.3945 60.6992C52.793 60.6992 51.5781 61.3594 50.75 62.6797C49.9297 63.9922 49.5195 65.9023 49.5195 68.4102C49.5195 70.8633 49.9336 72.7656 50.7617 74.1172C51.5977 75.4609 52.7773 76.1328 54.3008 76.1328C55.3945 76.1328 56.3281 75.9883 57.1016 75.6992V69.4648H54.5117V68.3633ZM63.575 64.2852V72.582C63.575 73.8398 63.7234 74.7578 64.0203 75.3359C64.325 75.9141 64.7898 76.2031 65.4148 76.2031C66.3758 76.2031 67.0789 75.8164 67.5242 75.043C67.9773 74.2617 68.2039 73.0039 68.2039 71.2695V64.2852H69.3055V77H68.368L68.2273 75.2188H68.1336C67.8602 75.8672 67.4812 76.3672 66.9969 76.7188C66.5125 77.0625 65.9852 77.2344 65.4148 77.2344C64.3914 77.2344 63.6414 76.8711 63.1648 76.1445C62.6961 75.418 62.4617 74.2305 62.4617 72.582V64.2852H63.575ZM78.8258 77L78.6852 75.2188H78.6383C78.0289 76.5625 77.107 77.2344 75.8727 77.2344C75.0445 77.2344 74.3766 76.9062 73.8687 76.25C73.3687 75.5859 73.1187 74.6992 73.1187 73.5898C73.1187 72.3789 73.482 71.4219 74.2086 70.7188C74.9352 70.0078 75.9547 69.6211 77.2672 69.5586L78.6383 69.4883V68.4336C78.6383 67.2461 78.4898 66.3828 78.193 65.8438C77.8961 65.2969 77.4039 65.0234 76.7164 65.0234C75.9898 65.0234 75.2477 65.2617 74.4898 65.7383L74.0094 64.8594C74.8922 64.3125 75.818 64.0391 76.7867 64.0391C77.8336 64.0391 78.5875 64.3711 79.0484 65.0352C79.5094 65.6914 79.7398 66.793 79.7398 68.3398V77H78.8258ZM76.1187 76.2852C76.9156 76.2852 77.5328 75.8945 77.9703 75.1133C78.4156 74.3242 78.6383 73.2109 78.6383 71.7734V70.4492L77.3141 70.5195C76.2906 70.5742 75.5289 70.8594 75.0289 71.375C74.5367 71.8828 74.2906 72.6289 74.2906 73.6133C74.2906 74.5352 74.4547 75.2109 74.7828 75.6406C75.1109 76.0703 75.5562 76.2852 76.1187 76.2852ZM87.8187 64.0391C88.2172 64.0391 88.5883 64.0938 88.932 64.2031L88.6625 65.3164C88.3812 65.1992 88.0922 65.1406 87.7953 65.1406C87.3656 65.1406 86.9633 65.3633 86.5883 65.8086C86.2211 66.2461 85.932 66.8594 85.7211 67.6484C85.5102 68.4375 85.4047 69.3086 85.4047 70.2617V77H84.2914V64.2852H85.2055L85.3227 66.5117H85.4047C85.9984 64.8633 86.8031 64.0391 87.8187 64.0391ZM96.9758 77L96.8352 75.2188H96.7883C96.1789 76.5625 95.257 77.2344 94.0227 77.2344C93.1945 77.2344 92.5266 76.9062 92.0187 76.25C91.5187 75.5859 91.2687 74.6992 91.2687 73.5898C91.2687 72.3789 91.632 71.4219 92.3586 70.7188C93.0852 70.0078 94.1047 69.6211 95.4172 69.5586L96.7883 69.4883V68.4336C96.7883 67.2461 96.6398 66.3828 96.343 65.8438C96.0461 65.2969 95.5539 65.0234 94.8664 65.0234C94.1398 65.0234 93.3977 65.2617 92.6398 65.7383L92.1594 64.8594C93.0422 64.3125 93.968 64.0391 94.9367 64.0391C95.9836 64.0391 96.7375 64.3711 97.1984 65.0352C97.6594 65.6914 97.8898 66.793 97.8898 68.3398V77H96.9758ZM94.2687 76.2852C95.0656 76.2852 95.6828 75.8945 96.1203 75.1133C96.5656 74.3242 96.7883 73.2109 96.7883 71.7734V70.4492L95.4641 70.5195C94.4406 70.5742 93.6789 70.8594 93.1789 71.375C92.6867 71.8828 92.4406 72.6289 92.4406 73.6133C92.4406 74.5352 92.6047 75.2109 92.9328 75.6406C93.2609 76.0703 93.7062 76.2852 94.2687 76.2852ZM108.184 77V68.2344C108.184 66.125 107.559 65.0703 106.309 65.0703C105.355 65.0703 104.656 65.4648 104.211 66.2539C103.773 67.043 103.555 68.2969 103.555 70.0156V77H102.441V64.2852H103.379L103.473 66.0547H103.578C103.844 65.4141 104.227 64.918 104.727 64.5664C105.227 64.2148 105.762 64.0391 106.332 64.0391C107.316 64.0391 108.055 64.3711 108.547 65.0352C109.039 65.6914 109.285 66.75 109.285 68.2109V77H108.184ZM116.169 76.2031C116.512 76.2031 116.817 76.1562 117.083 76.0625V77C116.739 77.1562 116.298 77.2344 115.759 77.2344C114.446 77.2344 113.79 76.2539 113.79 74.293V65.2695H112.641V64.6133L113.766 64.2852L114.13 61.2617H114.903V64.2852H116.919V65.2695H114.903V73.9766C114.903 74.8359 114.997 75.4219 115.184 75.7344C115.372 76.0469 115.7 76.2031 116.169 76.2031ZM123.92 77.2344C122.576 77.2344 121.541 76.6641 120.814 75.5234C120.095 74.375 119.736 72.7773 119.736 70.7305C119.736 68.5586 120.056 66.9023 120.697 65.7617C121.345 64.6133 122.275 64.0391 123.486 64.0391C124.541 64.0391 125.373 64.543 125.982 65.5508C126.591 66.5508 126.896 67.9023 126.896 69.6055V70.6367H120.873C120.888 72.4883 121.15 73.875 121.658 74.7969C122.166 75.7188 122.935 76.1797 123.966 76.1797C124.763 76.1797 125.603 75.918 126.486 75.3945V76.4727C125.673 76.9805 124.818 77.2344 123.92 77.2344ZM123.416 65.0469C121.884 65.0469 121.045 66.5742 120.896 69.6289H125.783C125.783 68.2305 125.568 67.1172 125.138 66.2891C124.716 65.4609 124.142 65.0469 123.416 65.0469ZM134.541 77.2344C133.198 77.2344 132.162 76.6641 131.436 75.5234C130.717 74.375 130.358 72.7773 130.358 70.7305C130.358 68.5586 130.678 66.9023 131.319 65.7617C131.967 64.6133 132.897 64.0391 134.108 64.0391C135.162 64.0391 135.995 64.543 136.604 65.5508C137.213 66.5508 137.518 67.9023 137.518 69.6055V70.6367H131.495C131.51 72.4883 131.772 73.875 132.28 74.7969C132.787 75.7188 133.557 76.1797 134.588 76.1797C135.385 76.1797 136.225 75.918 137.108 75.3945V76.4727C136.295 76.9805 135.44 77.2344 134.541 77.2344ZM134.037 65.0469C132.506 65.0469 131.666 66.5742 131.518 69.6289H136.405C136.405 68.2305 136.19 67.1172 135.76 66.2891C135.338 65.4609 134.764 65.0469 134.037 65.0469Z" fill="#F4F4F4"/>
</svg>
