<svg width="1124" height="579" viewBox="0 0 1124 579" fill="none" xmlns="http://www.w3.org/2000/svg">
<path d="M569 257.5C558.908 268.72 549.25 273.839 527 281.5C529.706 359.212 528.836 390.249 518.5 399.5C547.791 397.217 559.828 390.81 569 365V257.5Z" fill="#ADACB5"/>
<path d="M526.5 205C528.079 157.798 530.689 128.007 520.5 103.5C556.122 101.122 568.086 112.663 567.5 168.5C548.716 192.897 540.381 198.54 526.5 205Z" fill="#ADACB5"/>
<path d="M510.5 102.5C472.248 106.697 464.625 119.849 462 151C471.19 145.386 483.401 144.004 517 144.5C519.718 119.05 519.261 108.192 510.5 102.5Z" fill="#ADACB5"/>
<circle cx="488" cy="371" r="32" fill="#ADACB5"/>
<path d="M443 0.5H558C572.4 16.1 560.667 30 553 35C548.5 35.1667 527.4 35.4 479 35C418.5 34.5 365.5 104 385 164C431 275.2 526.167 227.667 568 190V242.5C509 303.5 346 272 340 151C335.2 54.2 406.667 10.3333 443 0.5Z" fill="#2D3142"/>
<path d="M33.24 559.128C26.424 559.128 20.184 557.832 14.52 555.24C8.952 552.744 4.344 549.144 0.696 544.44L13.368 528.888C18.84 536.28 25.032 539.976 31.944 539.976C41.544 539.976 46.344 534.408 46.344 523.272V460.92H11.064V442.2H69.672V521.976C69.672 534.36 66.6 543.624 60.456 549.768C54.312 556.008 45.24 559.128 33.24 559.128ZM127.998 544.152C119.838 544.152 112.494 542.472 105.966 539.112C99.5336 535.656 94.4936 530.904 90.8456 524.856C87.1976 518.808 85.3736 511.944 85.3736 504.264C85.3736 496.584 87.1976 489.72 90.8456 483.672C94.4936 477.624 99.5336 472.92 105.966 469.56C112.494 466.104 119.838 464.376 127.998 464.376C136.158 464.376 143.454 466.104 149.886 469.56C156.318 472.92 161.358 477.624 165.006 483.672C168.654 489.72 170.478 496.584 170.478 504.264C170.478 511.944 168.654 518.808 165.006 524.856C161.358 530.904 156.318 535.656 149.886 539.112C143.454 542.472 136.158 544.152 127.998 544.152ZM127.998 525.72C133.758 525.72 138.462 523.8 142.11 519.96C145.854 516.024 147.726 510.792 147.726 504.264C147.726 497.736 145.854 492.552 142.11 488.712C138.462 484.776 133.758 482.808 127.998 482.808C122.238 482.808 117.486 484.776 113.742 488.712C109.998 492.552 108.126 497.736 108.126 504.264C108.126 510.792 109.998 516.024 113.742 519.96C117.486 523.8 122.238 525.72 127.998 525.72ZM231.285 464.376C238.485 464.376 245.013 466.056 250.869 469.416C256.821 472.68 261.477 477.336 264.837 483.384C268.197 489.336 269.877 496.296 269.877 504.264C269.877 512.232 268.197 519.24 264.837 525.288C261.477 531.24 256.821 535.896 250.869 539.256C245.013 542.52 238.485 544.152 231.285 544.152C220.629 544.152 212.517 540.792 206.949 534.072V543H185.493V436.152H207.957V473.736C213.621 467.496 221.397 464.376 231.285 464.376ZM227.397 525.72C233.157 525.72 237.861 523.8 241.509 519.96C245.253 516.024 247.125 510.792 247.125 504.264C247.125 497.736 245.253 492.552 241.509 488.712C237.861 484.776 233.157 482.808 227.397 482.808C221.637 482.808 216.885 484.776 213.141 488.712C209.493 492.552 207.669 497.736 207.669 504.264C207.669 510.792 209.493 516.024 213.141 519.96C216.885 523.8 221.637 525.72 227.397 525.72ZM395.392 491.016H416.704V543H399.136V536.952C392.128 542.136 383.104 544.728 372.064 544.728C362.752 544.728 354.208 542.712 346.432 538.68C338.656 534.648 332.464 528.792 327.856 521.112C323.248 513.336 320.944 504.12 320.944 493.464C320.944 483.192 323.296 474.072 328 466.104C332.8 458.04 339.424 451.752 347.872 447.24C356.32 442.728 365.824 440.472 376.384 440.472C385.216 440.472 393.232 441.96 400.432 444.936C407.632 447.912 413.68 452.232 418.576 457.896L403.6 471.72C396.4 464.136 387.712 460.344 377.536 460.344C371.104 460.344 365.392 461.736 360.4 464.52C355.408 467.208 351.52 471.048 348.736 476.04C345.952 481.032 344.56 486.792 344.56 493.32C344.56 500.136 345.904 505.944 348.592 510.744C351.376 515.544 355.072 519.192 359.68 521.688C364.288 524.088 369.328 525.288 374.8 525.288C382.96 525.288 389.824 522.984 395.392 518.376V491.016ZM514.838 465.528V543H493.526V533.784C490.55 537.144 486.998 539.736 482.87 541.56C478.742 543.288 474.278 544.152 469.478 544.152C459.302 544.152 451.238 541.224 445.286 535.368C439.334 529.512 436.358 520.824 436.358 509.304V465.528H458.822V505.992C458.822 518.472 464.054 524.712 474.518 524.712C479.894 524.712 484.214 522.984 487.478 519.528C490.742 515.976 492.374 510.744 492.374 503.832V465.528H514.838ZM614.273 465.528V543H592.817V534.072C587.249 540.792 579.185 544.152 568.625 544.152C561.329 544.152 554.705 542.52 548.753 539.256C542.897 535.992 538.289 531.336 534.929 525.288C531.569 519.24 529.889 512.232 529.889 504.264C529.889 496.296 531.569 489.288 534.929 483.24C538.289 477.192 542.897 472.536 548.753 469.272C554.705 466.008 561.329 464.376 568.625 464.376C578.513 464.376 586.241 467.496 591.809 473.736V465.528H614.273ZM572.513 525.72C578.177 525.72 582.881 523.8 586.625 519.96C590.369 516.024 592.241 510.792 592.241 504.264C592.241 497.736 590.369 492.552 586.625 488.712C582.881 484.776 578.177 482.808 572.513 482.808C566.753 482.808 562.001 484.776 558.257 488.712C554.513 492.552 552.641 497.736 552.641 504.264C552.641 510.792 554.513 516.024 558.257 519.96C562.001 523.8 566.753 525.72 572.513 525.72ZM656.527 475.752C659.215 472.008 662.815 469.176 667.327 467.256C671.935 465.336 677.215 464.376 683.167 464.376V485.112C680.671 484.92 678.991 484.824 678.127 484.824C671.695 484.824 666.655 486.648 663.007 490.296C659.359 493.848 657.535 499.224 657.535 506.424V543H635.071V465.528H656.527V475.752ZM774.445 465.528V543H752.989V534.072C747.421 540.792 739.357 544.152 728.797 544.152C721.501 544.152 714.877 542.52 708.925 539.256C703.069 535.992 698.461 531.336 695.101 525.288C691.741 519.24 690.061 512.232 690.061 504.264C690.061 496.296 691.741 489.288 695.101 483.24C698.461 477.192 703.069 472.536 708.925 469.272C714.877 466.008 721.501 464.376 728.797 464.376C738.685 464.376 746.413 467.496 751.981 473.736V465.528H774.445ZM732.685 525.72C738.349 525.72 743.053 523.8 746.797 519.96C750.541 516.024 752.413 510.792 752.413 504.264C752.413 497.736 750.541 492.552 746.797 488.712C743.053 484.776 738.349 482.808 732.685 482.808C726.925 482.808 722.173 484.776 718.429 488.712C714.685 492.552 712.813 497.736 712.813 504.264C712.813 510.792 714.685 516.024 718.429 519.96C722.173 523.8 726.925 525.72 732.685 525.72ZM842.331 464.376C851.931 464.376 859.659 467.256 865.515 473.016C871.467 478.776 874.443 487.32 874.443 498.648V543H851.979V502.104C851.979 495.96 850.635 491.4 847.947 488.424C845.259 485.352 841.371 483.816 836.283 483.816C830.619 483.816 826.107 485.592 822.747 489.144C819.387 492.6 817.707 497.784 817.707 504.696V543H795.243V465.528H816.699V474.6C819.675 471.336 823.371 468.84 827.787 467.112C832.203 465.288 837.051 464.376 842.331 464.376ZM941.462 539.256C939.254 540.888 936.518 542.136 933.254 543C930.086 543.768 926.774 544.152 923.318 544.152C914.006 544.152 906.854 541.8 901.862 537.096C896.87 532.392 894.374 525.48 894.374 516.36V448.392H916.838V467.256H935.99V484.536H916.838V516.072C916.838 519.336 917.654 521.88 919.286 523.704C920.918 525.432 923.27 526.296 926.342 526.296C929.798 526.296 932.87 525.336 935.558 523.416L941.462 539.256ZM990.783 526.152C994.815 526.152 998.367 525.576 1001.44 524.424C1004.61 523.176 1007.53 521.256 1010.22 518.664L1022.17 531.624C1014.88 539.976 1004.22 544.152 990.207 544.152C981.471 544.152 973.743 542.472 967.023 539.112C960.303 535.656 955.119 530.904 951.471 524.856C947.823 518.808 945.999 511.944 945.999 504.264C945.999 496.68 947.775 489.864 951.327 483.816C954.975 477.672 959.919 472.92 966.159 469.56C972.495 466.104 979.599 464.376 987.471 464.376C994.863 464.376 1001.58 465.96 1007.63 469.128C1013.68 472.2 1018.48 476.712 1022.03 482.664C1025.68 488.52 1027.5 495.48 1027.5 503.544L970.191 514.632C971.823 518.472 974.367 521.352 977.823 523.272C981.375 525.192 985.695 526.152 990.783 526.152ZM987.471 481.368C981.807 481.368 977.199 483.192 973.647 486.84C970.095 490.488 968.223 495.528 968.031 501.96L1005.76 494.616C1004.7 490.584 1002.54 487.368 999.279 484.968C996.015 482.568 992.079 481.368 987.471 481.368ZM1081.63 526.152C1085.66 526.152 1089.21 525.576 1092.28 524.424C1095.45 523.176 1098.38 521.256 1101.07 518.664L1113.02 531.624C1105.72 539.976 1095.07 544.152 1081.05 544.152C1072.31 544.152 1064.59 542.472 1057.87 539.112C1051.15 535.656 1045.96 530.904 1042.31 524.856C1038.67 518.808 1036.84 511.944 1036.84 504.264C1036.84 496.68 1038.62 489.864 1042.17 483.816C1045.82 477.672 1050.76 472.92 1057 469.56C1063.34 466.104 1070.44 464.376 1078.31 464.376C1085.71 464.376 1092.43 465.96 1098.47 469.128C1104.52 472.2 1109.32 476.712 1112.87 482.664C1116.52 488.52 1118.35 495.48 1118.35 503.544L1061.03 514.632C1062.67 518.472 1065.21 521.352 1068.67 523.272C1072.22 525.192 1076.54 526.152 1081.63 526.152ZM1078.31 481.368C1072.65 481.368 1068.04 483.192 1064.49 486.84C1060.94 490.488 1059.07 495.528 1058.87 501.96L1096.6 494.616C1095.55 490.584 1093.39 487.368 1090.12 484.968C1086.86 482.568 1082.92 481.368 1078.31 481.368Z" fill="#EAE8FF"/>
</svg>
