<svg width="154" height="68" viewBox="0 0 154 68" fill="none" xmlns="http://www.w3.org/2000/svg">
<path d="M78 32V0H92.7634V5.0383H83.1051V25.3957C86.8305 22.4681 87.5893 19.6766 87.9343 15.9319H85.7266V11.166H92.7634C94.4967 25.175 86.4165 30.7064 78 32Z" fill="#F4F4F4"/>
<path d="M77 0H62V4.95966H71.9539V25.2059C69.0044 22.8173 67.0461 20.586 67.0461 14.879H62C62 24.051 66.424 30.3015 77 32V0Z" fill="#F4F4F4"/>
<path d="M5.712 53.24C4.8 53.24 3.952 53.056 3.168 52.688C2.384 52.304 1.744 51.776 1.248 51.104C1.056 50.816 0.96 50.536 0.96 50.264C0.96 49.88 1.112 49.552 1.416 49.28C1.72 48.992 2.032 48.848 2.352 48.848C2.768 48.848 3.216 49.088 3.696 49.568C4 49.856 4.312 50.064 4.632 50.192C4.952 50.304 5.312 50.36 5.712 50.36C6.176 50.36 6.616 50.24 7.032 50C7.464 49.76 7.808 49.44 8.064 49.04C8.32 48.624 8.448 48.192 8.448 47.744V37.664C8.448 37.248 8.6 36.904 8.904 36.632C9.208 36.344 9.56 36.2 9.96 36.2C10.408 36.2 10.768 36.336 11.04 36.608C11.312 36.88 11.448 37.232 11.448 37.664V47.744C11.448 48.704 11.192 49.608 10.68 50.456C10.168 51.304 9.472 51.984 8.592 52.496C7.712 52.992 6.752 53.24 5.712 53.24ZM27.1382 46.592C27.1382 47.872 26.8502 49.024 26.2742 50.048C25.6982 51.056 24.9062 51.84 23.8982 52.4C22.9062 52.96 21.8102 53.24 20.6102 53.24C19.3942 53.24 18.2902 52.96 17.2982 52.4C16.3062 51.84 15.5222 51.056 14.9462 50.048C14.3702 49.024 14.0822 47.872 14.0822 46.592C14.0822 45.312 14.3702 44.168 14.9462 43.16C15.5222 42.136 16.3062 41.344 17.2982 40.784C18.2902 40.208 19.3942 39.92 20.6102 39.92C21.8102 39.92 22.9062 40.208 23.8982 40.784C24.9062 41.344 25.6982 42.136 26.2742 43.16C26.8502 44.168 27.1382 45.312 27.1382 46.592ZM24.2582 46.592C24.2582 45.808 24.0902 45.112 23.7542 44.504C23.4342 43.88 22.9942 43.4 22.4342 43.064C21.8902 42.728 21.2822 42.56 20.6102 42.56C19.9382 42.56 19.3222 42.728 18.7622 43.064C18.2182 43.4 17.7782 43.88 17.4422 44.504C17.1222 45.112 16.9622 45.808 16.9622 46.592C16.9622 47.376 17.1222 48.072 17.4422 48.68C17.7782 49.288 18.2182 49.76 18.7622 50.096C19.3222 50.432 19.9382 50.6 20.6102 50.6C21.2822 50.6 21.8902 50.432 22.4342 50.096C22.9942 49.76 23.4342 49.288 23.7542 48.68C24.0902 48.072 24.2582 47.376 24.2582 46.592ZM36.1924 39.92C37.2964 39.92 38.2964 40.208 39.1924 40.784C40.0884 41.344 40.7924 42.128 41.3044 43.136C41.8324 44.144 42.0964 45.288 42.0964 46.568C42.0964 47.848 41.8404 49 41.3284 50.024C40.8164 51.032 40.1124 51.824 39.2164 52.4C38.3364 52.96 37.3604 53.24 36.2884 53.24C35.5204 53.24 34.7924 53.088 34.1044 52.784C33.4324 52.464 32.8724 52.08 32.4244 51.632V51.776C32.4244 52.192 32.2884 52.544 32.0164 52.832C31.7444 53.104 31.4004 53.24 30.9844 53.24C30.5684 53.24 30.2244 53.104 29.9524 52.832C29.6804 52.56 29.5444 52.208 29.5444 51.776V36.704C29.5444 36.288 29.6804 35.944 29.9524 35.672C30.2244 35.384 30.5684 35.24 30.9844 35.24C31.4004 35.24 31.7444 35.384 32.0164 35.672C32.2884 35.944 32.4244 36.288 32.4244 36.704V41.72C32.8084 41.24 33.3444 40.824 34.0324 40.472C34.7204 40.104 35.4404 39.92 36.1924 39.92ZM35.8324 50.6C36.8564 50.6 37.6964 50.216 38.3524 49.448C39.0084 48.68 39.3364 47.72 39.3364 46.568C39.3364 45.416 39.0084 44.464 38.3524 43.712C37.7124 42.944 36.8724 42.56 35.8324 42.56C34.7924 42.56 33.9444 42.944 33.2884 43.712C32.6324 44.464 32.3044 45.416 32.3044 46.568C32.3044 47.72 32.6324 48.68 33.2884 49.448C33.9444 50.216 34.7924 50.6 35.8324 50.6Z" fill="#F4F4F4"/>
<path d="M54.5117 44.3633H58.2617V52.4727C56.957 52.9805 55.6016 53.2344 54.1953 53.2344C52.3281 53.2344 50.8789 52.4531 49.8477 50.8906C48.8164 49.3281 48.3008 47.1602 48.3008 44.3867C48.3008 41.6055 48.832 39.4492 49.8945 37.918C50.9648 36.3867 52.4648 35.6211 54.3945 35.6211C55.6914 35.6211 56.9141 35.9883 58.0625 36.7227L57.5117 37.7305C56.4336 37.043 55.3945 36.6992 54.3945 36.6992C52.793 36.6992 51.5781 37.3594 50.75 38.6797C49.9297 39.9922 49.5195 41.9023 49.5195 44.4102C49.5195 46.8633 49.9336 48.7656 50.7617 50.1172C51.5977 51.4609 52.7773 52.1328 54.3008 52.1328C55.3945 52.1328 56.3281 51.9883 57.1016 51.6992V45.4648H54.5117V44.3633ZM63.575 40.2852V48.582C63.575 49.8398 63.7234 50.7578 64.0203 51.3359C64.325 51.9141 64.7898 52.2031 65.4148 52.2031C66.3758 52.2031 67.0789 51.8164 67.5242 51.043C67.9773 50.2617 68.2039 49.0039 68.2039 47.2695V40.2852H69.3055V53H68.368L68.2273 51.2188H68.1336C67.8602 51.8672 67.4812 52.3672 66.9969 52.7188C66.5125 53.0625 65.9852 53.2344 65.4148 53.2344C64.3914 53.2344 63.6414 52.8711 63.1648 52.1445C62.6961 51.418 62.4617 50.2305 62.4617 48.582V40.2852H63.575ZM78.8258 53L78.6852 51.2188H78.6383C78.0289 52.5625 77.107 53.2344 75.8727 53.2344C75.0445 53.2344 74.3766 52.9062 73.8687 52.25C73.3687 51.5859 73.1187 50.6992 73.1187 49.5898C73.1187 48.3789 73.482 47.4219 74.2086 46.7188C74.9352 46.0078 75.9547 45.6211 77.2672 45.5586L78.6383 45.4883V44.4336C78.6383 43.2461 78.4898 42.3828 78.193 41.8438C77.8961 41.2969 77.4039 41.0234 76.7164 41.0234C75.9898 41.0234 75.2477 41.2617 74.4898 41.7383L74.0094 40.8594C74.8922 40.3125 75.818 40.0391 76.7867 40.0391C77.8336 40.0391 78.5875 40.3711 79.0484 41.0352C79.5094 41.6914 79.7398 42.793 79.7398 44.3398V53H78.8258ZM76.1187 52.2852C76.9156 52.2852 77.5328 51.8945 77.9703 51.1133C78.4156 50.3242 78.6383 49.2109 78.6383 47.7734V46.4492L77.3141 46.5195C76.2906 46.5742 75.5289 46.8594 75.0289 47.375C74.5367 47.8828 74.2906 48.6289 74.2906 49.6133C74.2906 50.5352 74.4547 51.2109 74.7828 51.6406C75.1109 52.0703 75.5562 52.2852 76.1187 52.2852ZM87.8187 40.0391C88.2172 40.0391 88.5883 40.0938 88.932 40.2031L88.6625 41.3164C88.3812 41.1992 88.0922 41.1406 87.7953 41.1406C87.3656 41.1406 86.9633 41.3633 86.5883 41.8086C86.2211 42.2461 85.932 42.8594 85.7211 43.6484C85.5102 44.4375 85.4047 45.3086 85.4047 46.2617V53H84.2914V40.2852H85.2055L85.3227 42.5117H85.4047C85.9984 40.8633 86.8031 40.0391 87.8187 40.0391ZM96.9758 53L96.8352 51.2188H96.7883C96.1789 52.5625 95.257 53.2344 94.0227 53.2344C93.1945 53.2344 92.5266 52.9062 92.0187 52.25C91.5187 51.5859 91.2687 50.6992 91.2687 49.5898C91.2687 48.3789 91.632 47.4219 92.3586 46.7188C93.0852 46.0078 94.1047 45.6211 95.4172 45.5586L96.7883 45.4883V44.4336C96.7883 43.2461 96.6398 42.3828 96.343 41.8438C96.0461 41.2969 95.5539 41.0234 94.8664 41.0234C94.1398 41.0234 93.3977 41.2617 92.6398 41.7383L92.1594 40.8594C93.0422 40.3125 93.968 40.0391 94.9367 40.0391C95.9836 40.0391 96.7375 40.3711 97.1984 41.0352C97.6594 41.6914 97.8898 42.793 97.8898 44.3398V53H96.9758ZM94.2687 52.2852C95.0656 52.2852 95.6828 51.8945 96.1203 51.1133C96.5656 50.3242 96.7883 49.2109 96.7883 47.7734V46.4492L95.4641 46.5195C94.4406 46.5742 93.6789 46.8594 93.1789 47.375C92.6867 47.8828 92.4406 48.6289 92.4406 49.6133C92.4406 50.5352 92.6047 51.2109 92.9328 51.6406C93.2609 52.0703 93.7062 52.2852 94.2687 52.2852ZM108.184 53V44.2344C108.184 42.125 107.559 41.0703 106.309 41.0703C105.355 41.0703 104.656 41.4648 104.211 42.2539C103.773 43.043 103.555 44.2969 103.555 46.0156V53H102.441V40.2852H103.379L103.473 42.0547H103.578C103.844 41.4141 104.227 40.918 104.727 40.5664C105.227 40.2148 105.762 40.0391 106.332 40.0391C107.316 40.0391 108.055 40.3711 108.547 41.0352C109.039 41.6914 109.285 42.75 109.285 44.2109V53H108.184ZM116.169 52.2031C116.512 52.2031 116.817 52.1562 117.083 52.0625V53C116.739 53.1562 116.298 53.2344 115.759 53.2344C114.446 53.2344 113.79 52.2539 113.79 50.293V41.2695H112.641V40.6133L113.766 40.2852L114.13 37.2617H114.903V40.2852H116.919V41.2695H114.903V49.9766C114.903 50.8359 114.997 51.4219 115.184 51.7344C115.372 52.0469 115.7 52.2031 116.169 52.2031ZM123.92 53.2344C122.576 53.2344 121.541 52.6641 120.814 51.5234C120.095 50.375 119.736 48.7773 119.736 46.7305C119.736 44.5586 120.056 42.9023 120.697 41.7617C121.345 40.6133 122.275 40.0391 123.486 40.0391C124.541 40.0391 125.373 40.543 125.982 41.5508C126.591 42.5508 126.896 43.9023 126.896 45.6055V46.6367H120.873C120.888 48.4883 121.15 49.875 121.658 50.7969C122.166 51.7188 122.935 52.1797 123.966 52.1797C124.763 52.1797 125.603 51.918 126.486 51.3945V52.4727C125.673 52.9805 124.818 53.2344 123.92 53.2344ZM123.416 41.0469C121.884 41.0469 121.045 42.5742 120.896 45.6289H125.783C125.783 44.2305 125.568 43.1172 125.138 42.2891C124.716 41.4609 124.142 41.0469 123.416 41.0469ZM134.541 53.2344C133.198 53.2344 132.162 52.6641 131.436 51.5234C130.717 50.375 130.358 48.7773 130.358 46.7305C130.358 44.5586 130.678 42.9023 131.319 41.7617C131.967 40.6133 132.897 40.0391 134.108 40.0391C135.162 40.0391 135.995 40.543 136.604 41.5508C137.213 42.5508 137.518 43.9023 137.518 45.6055V46.6367H131.495C131.51 48.4883 131.772 49.875 132.28 50.7969C132.787 51.7188 133.557 52.1797 134.588 52.1797C135.385 52.1797 136.225 51.918 137.108 51.3945V52.4727C136.295 52.9805 135.44 53.2344 134.541 53.2344ZM134.037 41.0469C132.506 41.0469 131.666 42.5742 131.518 45.6289H136.405C136.405 44.2305 136.19 43.1172 135.76 42.2891C135.338 41.4609 134.764 41.0469 134.037 41.0469Z" fill="#F4F4F4"/>
</svg>
